<svg xmlns="http://www.w3.org/2000/svg" x="0px" y="0px" width="100" height="100" viewBox="0,0,256,256">
<g fill-opacity="0" fill="#dddddd" fill-rule="nonzero" stroke="none" stroke-width="1" stroke-linecap="butt" stroke-linejoin="miter" stroke-miterlimit="10" stroke-dasharray="" stroke-dashoffset="0" font-family="none" font-weight="none" font-size="none" text-anchor="none" style="mix-blend-mode: normal"><path d="M0,256v-256h256v256z" id="bgRectangle"></path></g><g fill="#000000" fill-rule="nonzero" stroke="none" stroke-width="1" stroke-linecap="butt" stroke-linejoin="miter" stroke-miterlimit="10" stroke-dasharray="" stroke-dashoffset="0" font-family="none" font-weight="none" font-size="none" text-anchor="none" style="mix-blend-mode: normal"><g transform="scale(5.12,5.12)"><path d="M9,4c-2.761,0 -5,2.239 -5,5v32c0,2.761 2.239,5 5,5h32c2.761,0 5,-2.239 5,-5v-32c0,-2.761 -2.239,-5 -5,-5zM20,12h5c4.42,0 8.033,3.63255 8,8.06055c-0.009,1.081 0.919,1.93945 2,1.93945h1c1.105,0 2,0.895 2,2v6c0,4.4 -3.6,8 -8,8h-10c-4.4,0 -8,-3.6 -8,-8v-5v-5c0,-4.4 3.6,-8 8,-8zM20,18c-1.1,0 -2,0.9 -2,2c0,1.1 0.9,2 2,2h5c1.1,0 2,-0.9 2,-2c0,-1.1 -0.9,-2 -2,-2zM20,28c-1.1,0 -2,0.9 -2,2c0,1.1 0.9,2 2,2h10c1.1,0 2,-0.9 2,-2c0,-1.1 -0.9,-2 -2,-2z"></path></g></g>
</svg>