<svg width="32" height="32" viewBox="0 0 32 32" xmlns="http://www.w3.org/2000/svg">
<path fill-rule="evenodd" clip-rule="evenodd" d="M7 23.7143V8.28571C7 7.57563 7.57563 7 8.28571 7H23.7143C24.4244 7 25 7.57563 25 8.28571V23.7143C25 24.4244 24.4244 25 23.7143 25H8.28571C7.57563 25 7 24.4244 7 23.7143ZM17.2857 10.0714C17.2857 9.79529 17.5096 9.57143 17.7857 9.57143H21.9286C22.2047 9.57143 22.4286 9.79529 22.4286 10.0714V14.2143C22.4286 14.4904 22.2047 14.7143 21.9286 14.7143H17.7857C17.5096 14.7143 17.2857 14.4904 17.2857 14.2143V10.0714ZM17.2857 17.7857C17.2857 17.5096 17.5096 17.2857 17.7857 17.2857H21.9286C22.2047 17.2857 22.4286 17.5096 22.4286 17.7857V21.9286C22.4286 22.2047 22.2047 22.4286 21.9286 22.4286H17.7857C17.5096 22.4286 17.2857 22.2047 17.2857 21.9286V17.7857ZM14.7143 10.0714C14.7143 9.79529 14.4904 9.57143 14.2143 9.57143H10.0714C9.79529 9.57143 9.57143 9.79529 9.57143 10.0714V14.2143C9.57143 14.4904 9.79529 14.7143 10.0714 14.7143L14.2143 14.7143C14.4904 14.7143 14.7143 14.4904 14.7143 14.2143V10.0714ZM14.7143 21.9286C14.7143 22.2047 14.4904 22.4286 14.2143 22.4286L10.0714 22.4286C9.79529 22.4286 9.57143 22.2047 9.57143 21.9286V17.7857C9.57143 17.5096 9.79529 17.2857 10.0714 17.2857L14.2143 17.2857C14.4904 17.2857 14.7143 17.5096 14.7143 17.7857V21.9286Z" fill="currentColor"/>
</svg>
