<svg width="32" height="32" viewBox="0 0 32 32" fill="none" xmlns="http://www.w3.org/2000/svg">
<path d="M9 22C9 22.5523 9.44772 23 10 23H17C17.5523 23 18 22.5523 18 22V19C18 18.7167 18.096 18.479 18.288 18.287C18.48 18.095 18.7173 17.9993 19 18H22C22.5523 18 23 17.5523 23 17V10C23 9.44772 22.5523 9 22 9H10C9.44772 9 9 9.44772 9 10V22ZM9 25C8.45 25 7.979 24.804 7.587 24.412C7.195 24.02 6.99934 23.5493 7 23V9C7 8.45 7.196 7.979 7.588 7.587C7.98 7.195 8.45067 6.99934 9 7H23C23.55 7 24.021 7.196 24.413 7.588C24.805 7.98 25.0007 8.45067 25 9V18.5858C25 18.851 24.8946 19.1054 24.7071 19.2929L19.2929 24.7071C19.1054 24.8946 18.851 25 18.5858 25H9ZM12 18C11.7167 18 11.479 17.904 11.287 17.712C11.095 17.52 10.9993 17.2827 11 17C11 16.7167 11.096 16.479 11.288 16.287C11.48 16.095 11.7173 15.9993 12 16H15C15.2833 16 15.521 16.096 15.713 16.288C15.905 16.48 16.0007 16.7173 16 17C16 17.2833 15.904 17.521 15.712 17.713C15.52 17.905 15.2827 18.0007 15 18H12ZM12 14C11.7167 14 11.479 13.904 11.287 13.712C11.095 13.52 10.9993 13.2827 11 13C11 12.7167 11.096 12.479 11.288 12.287C11.48 12.095 11.7173 11.9993 12 12H20C20.2833 12 20.521 12.096 20.713 12.288C20.905 12.48 21.0007 12.7173 21 13C21 13.2833 20.904 13.521 20.712 13.713C20.52 13.905 20.2827 14.0007 20 14H12Z" fill="#74A2B2"/>
</svg>
