<svg width="32" height="32" viewBox="0 0 32 32" fill="none" xmlns="http://www.w3.org/2000/svg">
<path d="M23.6905 22.3784C24.717 21.1444 25.431 19.6814 25.772 18.1133C26.113 16.5452 26.071 14.9181 25.6495 13.3697C25.2281 11.8213 24.4396 10.397 23.3507 9.21747C22.2619 8.03791 20.9047 7.13774 19.394 6.59311C17.8834 6.04847 16.2637 5.8754 14.6719 6.08852C13.0801 6.30164 11.5631 6.89469 10.2493 7.81749C8.93539 8.7403 7.86329 9.96572 7.12365 11.3901C6.38402 12.8145 5.9986 14.3959 6 16.0005C6.00054 18.3333 6.82327 20.5913 8.32381 22.3784L8.30951 22.3906C8.35955 22.4506 8.41673 22.502 8.4682 22.5613C8.53253 22.6348 8.60186 22.7041 8.66834 22.7755C8.86848 22.9927 9.07434 23.2012 9.29021 23.3969C9.35597 23.4569 9.42388 23.5126 9.49035 23.5697C9.71909 23.7669 9.95426 23.954 10.198 24.1283C10.2295 24.1497 10.258 24.1775 10.2895 24.1997V24.1911C11.9636 25.3682 13.9608 26 16.0079 26C18.055 26 20.0521 25.3682 21.7262 24.1911V24.1997C21.7577 24.1775 21.7856 24.1497 21.8177 24.1283C22.0608 23.9533 22.2966 23.7669 22.5254 23.5697C22.5919 23.5126 22.6598 23.4562 22.7255 23.3969C22.9414 23.2005 23.1472 22.9927 23.3474 22.7755C23.4139 22.7041 23.4825 22.6348 23.5475 22.5613C23.5983 22.502 23.6562 22.4506 23.7062 22.3899L23.6905 22.3784ZM16.0072 10.2869C16.6433 10.2869 17.2652 10.4754 17.7942 10.8285C18.3232 11.1817 18.7354 11.6836 18.9789 12.2709C19.2223 12.8582 19.286 13.5044 19.1619 14.1278C19.0378 14.7513 18.7315 15.3239 18.2816 15.7734C17.8318 16.2229 17.2586 16.529 16.6347 16.653C16.0107 16.777 15.364 16.7134 14.7762 16.4701C14.1885 16.2269 13.6861 15.8149 13.3327 15.2864C12.9792 14.7579 12.7906 14.1365 12.7906 13.5008C12.7906 12.6484 13.1295 11.8309 13.7327 11.2282C14.3359 10.6255 15.1541 10.2869 16.0072 10.2869ZM10.6385 22.6726C10.4145 22.4915 10.2882 22.2121 10.3285 21.9269C10.4373 21.1568 10.7958 20.4387 11.3555 19.8865C12.0234 19.2276 12.9241 18.8579 13.8628 18.8574H18.1515C19.0902 18.8579 19.9909 19.2276 20.6588 19.8865C21.2185 20.4387 21.577 21.1568 21.6858 21.9269C21.7261 22.2121 21.5998 22.4915 21.3758 22.6726C19.8602 23.8981 17.9659 24.5711 16.0072 24.5711C14.0484 24.5711 12.1541 23.8981 10.6385 22.6726Z" fill="#74A2B2"/>
</svg>
