<svg width="32" height="32" viewBox="0 0 32 32" xmlns="http://www.w3.org/2000/svg">
<path fill-rule="evenodd" clip-rule="evenodd" d="M16.0001 7.5C17.6245 7.49997 19.1855 8.13069 20.3537 9.25912C21.5219 10.3875 22.206 11.9254 22.2617 13.5484L22.2653 13.7632V16.8948C22.2653 17.0501 22.3014 17.2033 22.3709 17.3421L23.896 20.3914C23.9672 20.5336 24.0028 20.691 23.9998 20.85C23.9968 21.0091 23.9553 21.165 23.8789 21.3045C23.8024 21.444 23.6933 21.5629 23.5608 21.651C23.4283 21.7391 23.2765 21.7938 23.1182 21.8104L23.0153 21.8158H8.98482C8.82566 21.8158 8.66885 21.7773 8.52784 21.7035C8.38683 21.6297 8.26583 21.5228 8.1752 21.392C8.08456 21.2612 8.02701 21.1104 8.00746 20.9525C7.9879 20.7946 8.00694 20.6343 8.06294 20.4853L8.10411 20.3914L9.62923 17.3421C9.69869 17.2033 9.73486 17.0501 9.73486 16.8948V13.7632C9.73486 12.1021 10.3949 10.509 11.5699 9.33444C12.7449 8.15987 14.3384 7.5 16.0001 7.5ZM16.0001 9.28947C14.8469 9.28954 13.7382 9.73464 12.9053 10.532C12.0723 11.3293 11.5794 12.4173 11.5294 13.569L11.5249 13.7632V17.1309C11.5249 17.3528 11.4837 17.5728 11.4032 17.7796L11.3361 17.9317L11.0124 18.5791C10.68 19.244 11.1635 20.0263 11.9068 20.0263H20.0945C20.8378 20.0263 21.3213 19.2442 20.989 18.5793L20.665 17.9308C20.5656 17.7325 20.504 17.5174 20.4833 17.2965L20.4752 17.1309V13.7632C20.4752 12.5767 20.0037 11.4388 19.1645 10.5998C18.3252 9.76081 17.187 9.28947 16.0001 9.28947Z" fill="currentColor"/>
<path d="M17.6855 22.7105C18.2376 22.7105 18.7059 23.1908 18.4133 23.6591C18.3538 23.7543 18.2851 23.8444 18.2077 23.9279C17.9006 24.2589 17.4797 24.4617 17.0294 24.4955L16.8951 24.5H15.105C14.6534 24.5001 14.2185 24.3296 13.8873 24.0227C13.7788 23.9221 13.6799 23.7972 13.596 23.6581C13.3107 23.1853 13.7627 22.7105 14.315 22.7105H17.6855Z" fill="currentColor"/>
</svg>
